<svg xmlns="http://www.w3.org/2000/svg" viewBox="0 0 240 540">
  <path d="M0,520H240v20H0ZM110,260V440a40.04521,40.04521,0,0,1-40,40v20a59.98572,59.98572,0,0,0,50-26.88354A59.98572,59.98572,0,0,0,170,500V480a40.04521,40.04521,0,0,1-40-40V260ZM90.74023,149.25977a29.83314,29.83314,0,1,1-42.19043,0A29.86711,29.86711,0,0,1,90.74023,149.25977ZM79.478,170.355a9.8342,9.8342,0,1,0-2.88037,6.95264A9.76689,9.76689,0,0,0,79.478,170.355ZM240,390v20a59.75228,59.75228,0,0,1-40-15.3269V440a40.04521,40.04521,0,0,0,40,40v20a60.06812,60.06812,0,0,1-60-60V191.64148A99.42346,99.42346,0,0,1,140,200c-2.444,0-4.89465-.09595-7.33722-.2738a69.53983,69.53983,0,0,1-13.87518,19.77136h-.00049A69.04337,69.04337,0,0,1,69.645,239.853,70.49332,70.49332,0,0,1,60,239.18011V440A60.06812,60.06812,0,0,1,0,500V480a40.04521,40.04521,0,0,0,40-40V394.6731A59.75228,59.75228,0,0,1,0,410V390a40.04521,40.04521,0,0,0,40-40V233.25189a69.57427,69.57427,0,0,1,.27374-125.9154C40.09589,104.89417,40,102.44379,40,100a100,100,0,1,1,160,79.94922V350A40.04521,40.04521,0,0,0,240,390ZM119.14307,170.355a49.49944,49.49944,0,1,0-14.498,35h.00049A49.17212,49.17212,0,0,0,119.14307,170.355ZM140,130a30,30,0,1,0-30-30A30.03406,30.03406,0,0,0,140,130Zm0,50a80,80,0,1,0-80-80c0,.5083.01959,1.0174.02924,1.52618a70.50228,70.50228,0,0,1,9.61578-.66925,69.71677,69.71677,0,0,1,20.5238,3.07135C90.06738,102.63055,90,101.32336,90,100a50,50,0,1,1,50,50c-1.32336,0-2.63049-.06738-3.92822-.16882a69.71643,69.71643,0,0,1,3.07129,20.5238,70.48223,70.48223,0,0,1-.66938,9.61578C138.98254,179.98041,139.49164,180,140,180Z"/>
</svg>
