<svg xmlns="http://www.w3.org/2000/svg" viewBox="0 0 240 540">
  <path d="M240,120V0H0V120H20v30H0V270H20V384.14209l25.85779,25.85785L0,455.85742,14.14258,470l45.85748-45.85773L105.8576,470,50,525.85742,64.14258,540,120,484.1424,175.85742,540,190,525.85742,134.1424,470l45.85754-45.85773L225.85748,470,240,455.85742l-45.85779-45.85748L220,384.14209V270h20V150H220V120ZM20,20H220v80H168.629a100.37537,100.37537,0,0,0-43.62171-51.6123L120,45.49072l-5.00732,2.897A100.37537,100.37537,0,0,0,71.371,100H20ZM155,135a80.33308,80.33308,0,0,1-35,66.1499,80.01156,80.01156,0,0,1,0-132.2998A80.33308,80.33308,0,0,1,155,135ZM40,120H66.15442a98.02874,98.02874,0,0,0,0,30H40Zm0,255.85791V270H80V375.85791L60,395.85779Zm80,79.99976L74.14221,410,100,384.14209V270h40V384.14209L165.85779,410Zm80-79.99976-20,19.99988-20-19.99988V270h40ZM220,250H20V170H71.371a100.37537,100.37537,0,0,0,43.62171,51.6123L120,224.50928l5.00732-2.897A100.37537,100.37537,0,0,0,168.629,170H220ZM200,150H173.84558a98.02874,98.02874,0,0,0,0-30H200Z"/>
</svg>
