<svg xmlns="http://www.w3.org/2000/svg" viewBox="0 0 240 540">
  <path d="M175,358.75a64.40181,64.40181,0,0,0-45,18.11176V320h70V300H130V280h70V260H130V224.14215L194.14258,160,130,95.85785V60h70V40H130V20h70V0H110V95.85785L45.85742,160,110,224.14215V260H40v20h70v20H40v20h70v56.86169A64.40179,64.40179,0,0,0,65,358.75a65,65,0,0,0,0,130,66.07294,66.07294,0,0,0,10.56763-.86334,45,45,0,1,0,88.86474,0A66.07294,66.07294,0,0,0,175,488.75a65,65,0,0,0,0-130ZM120,114.14209,165.85742,160,120,205.85791,74.14258,160ZM120,448.75a25,25,0,1,1,25-25A25.02817,25.02817,0,0,1,120,448.75Zm-100-25a45.00087,45.00087,0,0,1,72.52441-35.60156,44.92522,44.92522,0,0,0,0,71.20312A45.00087,45.00087,0,0,1,20,423.75ZM120,520a25,25,0,1,1,25-25A25.02817,25.02817,0,0,1,120,520Zm55-51.25a44.618,44.618,0,0,1-27.52441-9.39844,44.92522,44.92522,0,0,0,0-71.20312A45.0003,45.0003,0,1,1,175,468.75ZM120,180l-20-20,20-20,20,20Z"/>
</svg>
