<svg xmlns="http://www.w3.org/2000/svg" viewBox="0 0 240 540">
  <path d="M160,240a40,40,0,1,0,50-38.73419V200a49.97282,49.97282,0,0,0-80-39.97278V50a30,30,0,0,1,60,0v1.26581a40,40,0,1,0,20,0V50a50,50,0,0,0-100,0v.02722A49.97282,49.97282,0,0,0,30,90v1.26581a40,40,0,1,0,20,0V90a30,30,0,0,1,60,0V200.02722A49.97282,49.97282,0,0,0,30,240v1.26581a40,40,0,1,0,20,0V240a30,30,0,0,1,60,0V360H40v20h70v40.4201A120.15866,120.15866,0,0,0,0,540H20a100,100,0,0,1,200,0h20A120.15866,120.15866,0,0,0,130,420.4201V380h70V360H130V200a30,30,0,0,1,60,0v1.26581A40.07191,40.07191,0,0,0,160,240ZM220,90a20,20,0,1,1-20-20A20.0226,20.0226,0,0,1,220,90ZM60,130a20,20,0,1,1-20-20A20.0226,20.0226,0,0,1,60,130Zm0,150a20,20,0,1,1-20-20A20.0226,20.0226,0,0,1,60,280Zm160-40a20,20,0,1,1-20-20A20.0226,20.0226,0,0,1,220,240ZM200,540H180a60,60,0,0,0-120,0H40a80,80,0,0,1,160,0Zm-40,0H140a20,20,0,0,0-40,0H80a40,40,0,0,1,80,0Z"/>
</svg>
