<svg xmlns="http://www.w3.org/2000/svg" viewBox="0 0 240 540">
  <path d="M135.74129,269.98932c41.62616-36.05557,64.38288-81.48581,64.34748-129.07683C200.05117,90.15388,173.7862,41.80572,126.13183,4.775L119.98731,0l-6.13769,4.78379C66.13178,41.97807,39.87315,90.62161,39.91074,141.75373c.03455,47.23332,22.78967,92.374,64.34468,128.2564-41.62422,36.05423-64.37959,81.48349-64.34468,129.074.03662,50.7591,26.30062,99.10824,73.95352,136.14042L120.00928,540l6.13769-4.78428c47.72028-37.19574,73.97988-85.84026,73.9418-136.97287C200.05386,351.01,177.29788,305.87065,135.74129,269.98932ZM59.90913,141.73957C59.87789,99.10628,81.15352,58.092,120.00635,25.51748c38.784,32.41145,60.05278,73.13767,60.084,115.41014.03173,42.63329-21.24487,83.64855-60.10014,116.22356C81.20771,224.73924,59.93989,184.01254,59.90913,141.73957Zm60.08111,372.742c-38.78253-32.41243-60.05035-73.13914-60.08111-115.4121-.03124-42.6328,21.24439-83.64708,60.09722-116.22161,38.784,32.41146,60.05278,73.13718,60.084,115.40966C180.12211,440.89079,158.84551,481.90653,119.99024,514.48155ZM160,141.32446a40,40,0,1,0-40,40A40.04521,40.04521,0,0,0,160,141.32446Zm-60,0a20,20,0,1,1,20,20A20.02292,20.02292,0,0,1,100,141.32446ZM80,398.67505a40,40,0,1,0,40-40A40.04521,40.04521,0,0,0,80,398.67505Zm60,0a20,20,0,1,1-20-20A20.02292,20.02292,0,0,1,140,398.67505Zm70-158.67627a30,30,0,1,0,30,30A30.03406,30.03406,0,0,0,210,239.99878Zm0,40a10,10,0,1,1,10-10A10.01114,10.01114,0,0,1,210,279.99878Zm-150-10a30,30,0,1,0-30,30A30.03406,30.03406,0,0,0,60,269.99878Zm-30,10a10,10,0,1,1,10-10A10.01114,10.01114,0,0,1,30,279.99878Z"/>
</svg>
