<svg xmlns="http://www.w3.org/2000/svg" viewBox="0 0 240 540">
  <path d="M205,210a35,35,0,0,0,0-70H35a35,35,0,0,0,0,70h75v50H35a35,35,0,0,0,0,70h75v50H35a35,35,0,0,0,0,70h75v50h20V450h75a35,35,0,0,0,0-70H130V330h75a35,35,0,0,0,0-70H130V210ZM35,430a15,15,0,0,1,0-30h75v30Zm170-30a15,15,0,0,1,0,30H130V400ZM35,310a15,15,0,0,1,0-30h75v30Zm170-30a15,15,0,0,1,0,30H130V280Zm15-105a15.01672,15.01672,0,0,1-15,15H130V160h75A15.01672,15.01672,0,0,1,220,175ZM35,190a15,15,0,0,1,0-30h75v30ZM0,520H240v20H0ZM120,0,0,110H240Zm0,27.13135L188.584,90H51.416Z"/>
</svg>
