<svg xmlns="http://www.w3.org/2000/svg" viewBox="0 0 240 540">
  <path d="M170,321.01074a69.8369,69.8369,0,0,0-40,12.562V315.15332L222.07129,223.082l-14.14258-14.14258L130,286.86816V245.15332L222.07129,153.082l-14.14258-14.14258L130,216.86816V175.15332L222.07129,83.082,207.92871,68.93945,130,146.86816V105.15332L187.07129,48.082,172.92871,33.93945,130,76.86816V0H110V76.86816L67.07129,33.93945,52.92871,48.082,110,105.15332v41.71484L32.07129,68.93945,17.92871,83.082,110,175.15332v41.71484L32.07129,138.93945,17.92871,153.082,110,245.15332v41.71484L32.07129,208.93945,17.92871,223.082,110,315.15332v18.41937A69.99661,69.99661,0,0,0,19.92334,439.92188L120,540l99.99463-99.99463.082-.08349A69.99979,69.99979,0,0,0,170,321.01074Zm35.80811,104.89649L120,511.71582,34.19189,425.90723a49.9988,49.9988,0,1,1,77.4795-62.523L120,375.917l8.32861-12.53271a49.99861,49.99861,0,1,1,77.4795,62.523ZM70,360a30,30,0,1,0,30,30A30.03406,30.03406,0,0,0,70,360Zm0,40a10,10,0,1,1,10-10A10.01114,10.01114,0,0,1,70,400Z"/>
</svg>
