<svg xmlns="http://www.w3.org/2000/svg" viewBox="0 0 240 540">
  <path d="M240,115.70526V82.03839a140.14689,140.14689,0,0,1-110,67.60022V93.27985a30,30,0,1,0-20,0v56.35876A140.14679,140.14679,0,0,1,0,82.03839v33.66687a159.71791,159.71791,0,0,0,110,53.97431v20.03472A179.28677,179.28677,0,0,1,0,144.03992v25.85864a200.71765,200.71765,0,0,0,22.76978,14.82825L.31641,216.36621,16.627,227.94141l24.30152-34.2436a198.42825,198.42825,0,0,0,23.87127,8.54395L40.49121,276.9043l19.01758,6.1914,24.838-76.28888A199.70139,199.70139,0,0,0,110,209.7428v90.6773a120,120,0,1,0,20,0V209.7428a199.70139,199.70139,0,0,0,25.6532-2.936l24.838,76.28888,19.01758-6.1914-24.30853-74.66254a198.43427,198.43427,0,0,0,23.87127-8.54395l24.30152,34.2436,16.31054-11.5752-22.45337-31.6394A200.72585,200.72585,0,0,0,240,169.89856V144.03992a179.28663,179.28663,0,0,1-110,45.67437V169.67957A159.71779,159.71779,0,0,0,240,115.70526ZM120,55a10,10,0,1,1-10,10A10.01146,10.01146,0,0,1,120,55ZM110,320.4986V462.6795L46.34869,352.43243A99.82818,99.82818,0,0,1,110,320.4986ZM120,520A99.96428,99.96428,0,0,1,33.41058,370.02258L120,520l86.58948-149.97736A99.96431,99.96431,0,0,1,120,520Zm73.65137-167.56757L130,462.6795V320.4986A99.82847,99.82847,0,0,1,193.65137,352.43243ZM16.06348,70.00732,13.167,65l2.89649-5.00732a120.03066,120.03066,0,0,1,207.873,0L226.833,65l-2.89649,5.00732A120.52843,120.52843,0,0,1,150,126.14606V105.353A100.53257,100.53257,0,0,0,203.52637,65,100.01838,100.01838,0,0,0,36.47363,65,100.53235,100.53235,0,0,0,90,105.353v20.793A120.52843,120.52843,0,0,1,16.06348,70.00732Z"/>
</svg>
