<svg xmlns="http://www.w3.org/2000/svg" viewBox="0 0 240 540">
  <path d="M226.6322,215A119.96192,119.96192,0,0,0,130,40.4201V0H110V40.4201A119.96212,119.96212,0,0,0,13.36768,215a119.82988,119.82988,0,0,0,0,110A119.96212,119.96212,0,0,0,110,499.5799V540h20V499.5799A119.96192,119.96192,0,0,0,226.6322,325a119.82892,119.82892,0,0,0,0-110ZM220,270a99.50825,99.50825,0,0,1-6.34961,35.06177A120.66417,120.66417,0,0,0,167.93091,270a120.66417,120.66417,0,0,0,45.71948-35.06177A99.50825,99.50825,0,0,1,220,270Zm-90-99.5014A100.08835,100.08835,0,0,1,203.4729,215,100.08835,100.08835,0,0,1,130,259.5014Zm-20,89.0028A100.08835,100.08835,0,0,1,36.5271,215,100.08835,100.08835,0,0,1,110,170.4986Zm0,110A100.08835,100.08835,0,0,1,36.5271,325,100.08835,100.08835,0,0,1,110,280.4986Zm20-89.0028A100.08835,100.08835,0,0,1,203.4729,325,100.08835,100.08835,0,0,1,130,369.5014ZM220,160a99.50825,99.50825,0,0,1-6.34961,35.06177A119.91137,119.91137,0,0,0,130,150.4201V60.4986A100.14006,100.14006,0,0,1,220,160ZM20,160a100.14006,100.14006,0,0,1,90-99.5014v89.9215a119.91137,119.91137,0,0,0-83.65039,44.64167A99.50825,99.50825,0,0,1,20,160Zm0,110a99.50825,99.50825,0,0,1,6.34961-35.06177A120.6651,120.6651,0,0,0,72.06909,270a120.6651,120.6651,0,0,0-45.71948,35.06177A99.50825,99.50825,0,0,1,20,270Zm0,110a99.50825,99.50825,0,0,1,6.34961-35.06177A119.91137,119.91137,0,0,0,110,389.5799v89.9215A100.13966,100.13966,0,0,1,20,380Zm200,0a100.13966,100.13966,0,0,1-90,99.5014V389.5799a119.91137,119.91137,0,0,0,83.65039-44.64167A99.50825,99.50825,0,0,1,220,380Z"/>
</svg>
