<svg xmlns="http://www.w3.org/2000/svg" viewBox="0 0 240 540">
  <path d="M240,435.00879H204.99207l-70.85-70.84924,80.8501-80.851-40.42481-40.4248L215,202.45117l-14.14258-14.14258L160.4248,228.74121,134.14258,202.459l80.84961-80.85058L130,36.61707V0H110V36.61707L25.00781,121.6084,105.85742,202.459,25.00781,283.30859l40.42456,40.42505L25,364.166l14.14258,14.14257L79.575,337.87622l26.283,26.28333-70.8501,70.84924H0v20H35.00781L120,540l84.99207-84.99121H240ZM186.708,121.6084,130,178.31641V64.90125ZM110,64.90125V178.31641l-56.708-56.708ZM53.292,283.30859l66.70752-66.70752.00049.00049.00049-.00049,26.28222,26.28223-66.708,66.708Zm107.1333-26.28271L186.708,283.30859,120,350.0166,93.71729,323.73389ZM120,378.30176l56.70789,56.707H63.292Zm0,133.41406-56.708-56.707h113.4159Z"/>
</svg>
