<svg xmlns="http://www.w3.org/2000/svg" viewBox="0 0 240 540">
  <path d="M179.863,435.97931l60.12915-60.12921-52.925-52.925L239.99219,270l-52.925-52.925,52.92505-52.925L179.863,104.02069A119.82744,119.82744,0,0,0,240,0H220a99.86856,99.86856,0,0,1-54.89209,89.26562L120,44.15771,74.89038,89.2674A99.84179,99.84179,0,0,1,20,0H0A119.7899,119.7899,0,0,0,60.13745,104.0202L.00781,164.1499,52.93286,217.075.00781,270l52.92505,52.92505L.00781,375.8501l60.12964,60.1297A119.79006,119.79006,0,0,0,0,540H20a99.84179,99.84179,0,0,1,54.89038-89.2674L120,495.84229l45.10791-45.10791A99.86856,99.86856,0,0,1,220,540h20A119.82744,119.82744,0,0,0,179.863,435.97931ZM211.708,270l-38.783,38.783L134.14209,270l38.783-38.783Zm-52.925,52.92505L120,361.708l-38.783-38.783L120,284.14209ZM120,255.85791,81.217,217.075,120,178.292l38.783,38.783Zm-91.708-91.708L120,72.44189l91.708,91.708-38.783,38.783L120,150.00781,67.075,202.93286ZM28.292,270l38.783-38.783L105.85791,270,67.075,308.783Zm0,105.8501,38.783-38.783L120,389.99219l52.92505-52.925,38.783,38.783L120,467.55811Z"/>
</svg>
