<svg xmlns="http://www.w3.org/2000/svg" viewBox="0 0 240 540">
  <path d="M225.792,289.75879a30.03229,30.03229,0,0,0-1.30859-51.81641,29.46355,29.46355,0,0,0-30.28711.79492,138.3056,138.3056,0,0,1-55.51758,20.02832L130,259.92188v141.344a40.13146,40.13146,0,0,0-20,0v-141.344l-8.67871-1.15626a138.30916,138.30916,0,0,1-55.5166-20.02734,29.45857,29.45857,0,0,0-30.28809-.7959A30.032,30.032,0,0,0,14.207,289.75781,199.45248,199.45248,0,0,0,50,307.4043v93.8739a40,40,0,1,0,0,77.4436V540H70V293.11914l-6.84473-2.27637A179.33413,179.33413,0,0,1,24.7998,272.794,10.05223,10.05223,0,0,1,20,264.24316a9.93923,9.93923,0,0,1,5.20215-8.80175,9.65263,9.65263,0,0,1,9.98437.24511A158.07755,158.07755,0,0,0,90,277.19336V413.58508a40,40,0,1,0,60,0V277.19336a158.07271,158.07271,0,0,0,54.81445-21.50781,9.64956,9.64956,0,0,1,9.9834-.24414A9.93923,9.93923,0,0,1,220,264.24316a10.0538,10.0538,0,0,1-4.80078,8.55176,179.34762,179.34762,0,0,1-38.35449,18.04785L170,293.11914V540h20V478.7218a40.0001,40.0001,0,1,0,0-77.44342V307.4043A199.50444,199.50444,0,0,0,225.792,289.75879ZM40,460a20,20,0,1,1,10-37.31934v34.63868A19.95012,19.95012,0,0,1,40,460Zm80,0a20,20,0,1,1,20-20A20.02229,20.02229,0,0,1,120,460Zm80-40a20,20,0,1,1-10,37.31934V422.68066A19.95548,19.95548,0,0,1,200,420ZM120,240A120,120,0,1,0,0,120,120.13623,120.13623,0,0,0,120,240ZM20.49854,130H110v89.5014A100.17955,100.17955,0,0,1,20.49854,130ZM130,219.5014V130h89.50146A100.17955,100.17955,0,0,1,130,219.5014ZM219.50146,110H130V20.4986A100.18011,100.18011,0,0,1,219.50146,110ZM110,20.4986V110H20.49854A100.18011,100.18011,0,0,1,110,20.4986Z"/>
</svg>
