<svg xmlns="http://www.w3.org/2000/svg" viewBox="0 0 240 540">
  <path d="M171.47278,120H240V100H182.8894L239.97266,0H.02734L57.1106,100H0v20H68.52722l51.37634,90.00244a59.65012,59.65012,0,0,0-34.63812,11.12067L42.21875,178.07568,28.07617,192.21777,71.12323,235.2652A59.66562,59.66562,0,0,0,60.8493,260H0v20H60.8493a59.66562,59.66562,0,0,0,10.27393,24.7348L28.07617,347.78223l14.14258,14.14209,43.04669-43.04743a59.65012,59.65012,0,0,0,34.63812,11.12067L68.52722,420H0v20H57.1106L.02734,540H239.97266L182.8894,440H240V420H171.47278l-51.37634-90.00244a59.65012,59.65012,0,0,0,34.63812-11.12067l43.04669,43.04743,14.14258-14.14209L168.87677,304.7348A59.66562,59.66562,0,0,0,179.1507,280H240V260H179.1507a59.66562,59.66562,0,0,0-10.27393-24.7348l43.04706-43.04743-14.14258-14.14209-43.04669,43.04743a59.65012,59.65012,0,0,0-34.63812-11.12067ZM34.47266,20H205.52734L159.8606,100H80.1394ZM148.44391,120,120,169.82861,91.55609,120ZM120,230a40,40,0,1,1-40,40A40.04552,40.04552,0,0,1,120,230Zm85.52734,290H34.47266L80.1394,440h79.7212ZM91.55609,420,120,370.17139,148.44391,420Z"/>
</svg>
