<svg xmlns="http://www.w3.org/2000/svg" viewBox="0 0 240 540">
  <path d="M240,0H130.23242l69,90H40.76758l69-90H0V20H69.23242l-69,90H110v40.42017a119.997,119.997,0,0,0,0,239.15966V430H.23242l69,90H0v20H109.76758l-69-90H199.23242l-69,90H240V520H170.76758l69-90H130V389.57983a119.997,119.997,0,0,0,0-239.15966V110H239.76758l-69-90H240ZM120,330a20.625,20.625,0,1,1,20.625-20.625A20.64786,20.64786,0,0,1,120,330ZM99.375,230.625A20.625,20.625,0,1,1,120,251.25,20.64786,20.64786,0,0,1,99.375,230.625ZM20,270a100.13937,100.13937,0,0,1,90-99.50146v20.75A40.62691,40.62691,0,0,0,109.99408,270,40.62691,40.62691,0,0,0,110,348.75146v20.75A100.13937,100.13937,0,0,1,20,270Zm200,0a100.13937,100.13937,0,0,1-90,99.50146v-20.75A40.62691,40.62691,0,0,0,130.00592,270,40.62691,40.62691,0,0,0,130,191.24854v-20.75A100.13937,100.13937,0,0,1,220,270Z"/>
</svg>
