<svg xmlns="http://www.w3.org/2000/svg" viewBox="0 0 240 540">
  <path d="M125.00732,295.43066,120,292.53369l-5.00732,2.897a100.02466,100.02466,0,0,0,0,173.2251L120,471.55273l5.00732-2.897a100.02466,100.02466,0,0,0,0-173.2251ZM120,448.19336a80.012,80.012,0,0,1,0-132.30029,80.012,80.012,0,0,1,0,132.30029ZM240,50A50.05635,50.05635,0,0,0,190,0H50A50.05635,50.05635,0,0,0,0,50V264.14209L15.85791,280,0,295.85791V380c0,22.94586,8.10547,44.75433,20,64.41937V540H40V472.01251a291.799,291.799,0,0,0,20,21.29254V540H80V511.19275a339.67488,339.67488,0,0,0,34.73047,25.50647L120,539.96631l5.26953-3.26709A339.67488,339.67488,0,0,0,160,511.19275V540h20v-46.695a291.799,291.799,0,0,0,20-21.29254V540h20V444.41937c11.89453-19.665,20-41.47351,20-64.41937V295.85791L224.14209,280,240,264.14209ZM220,255.85791,195.85791,280,220,304.14209V380c0,63.82324-78.68506,121.71484-100.00439,136.2251C98.66064,501.728,20,443.92676,20,380V304.14209L44.14209,280,20,255.85791V50A30.03406,30.03406,0,0,1,50,20H190a30.03406,30.03406,0,0,1,30,30ZM40,40H200V60H40ZM165,80a34.99748,34.99748,0,0,0-10,68.53662V260h20V148.53662A34.99748,34.99748,0,0,0,165,80Zm0,50a15,15,0,1,1,15-15A15.017,15.017,0,0,1,165,130ZM65,260H85V148.53662a35,35,0,1,0-20,0ZM60,115a15,15,0,1,1,15,15A15.017,15.017,0,0,1,60,115Z"/>
</svg>
