<svg xmlns="http://www.w3.org/2000/svg" viewBox="0 0 240 540">
  <path d="M240,148.28418V120L120,0,0,120v28.28418L64.14209,84.14209,85,105,0,190v28.28418l64.14209-64.14209L85,175,0,260v28.28418l64.14209-64.14209L85,245,0,330v28.28418l64.14209-64.14209L85,315,0,400v28.28418l99.14209-99.14209L110,340v26.97827a100.00938,100.00938,0,0,0,4.99268,170.12525L120,540l5.00732-2.89648A100.00938,100.00938,0,0,0,130,366.97827V340l10.85791-10.85791L240,428.28418V400l-85-85,20.85791-20.85791L240,358.28418V330l-85-85,20.85791-20.85791L240,288.28418V260l-85-85,20.85791-20.85791L240,218.28418V190l-85-85,20.85791-20.85791ZM155,450.49023a80.33394,80.33394,0,0,1-35,66.15039,80.01156,80.01156,0,0,1,0-132.2998A80.33221,80.33221,0,0,1,155,450.49023ZM161.71576,280,120,321.7157,78.2843,280l20.85785-20.85791L120,280l20.85785-20.85791Zm0-70L120,251.7157,78.2843,210l20.85785-20.85791L120,210l20.85785-20.85791Zm0-70L120,181.7157,78.2843,140l20.85785-20.85791L120,140l20.85785-20.85791ZM120,111.7157,78.2843,70,120,28.2843,161.71576,70Z"/>
</svg>
