<svg xmlns="http://www.w3.org/2000/svg" viewBox="0 0 240 540">
  <path d="M83.33337,103.33325l-20-20,20-20,20,20Zm73.33338,373.33338,20-20-20-20-20,20ZM240,83.33337V456.66663L156.66663,540,120,503.33337,83.33337,540,0,456.66663V83.33337L83.33337,0,120,36.66675,156.66663,0ZM134.14209,50.80884l32.52454,32.52453v45.04908L211.7157,83.33337,156.66663,28.2843ZM93.33337,436.66663l53.33326-53.33326v-280L93.33337,156.66663ZM28.2843,83.33337l55.04907,55.04895,55.04895-55.04895L83.33337,28.2843ZM20,436.66663l53.33337-53.33326V156.66663L20,103.33337Zm85.85791,52.52453L73.33337,456.66663V411.61768L28.2843,456.66663,83.33337,511.7157ZM211.7157,456.66663l-55.04907-55.04895-55.04895,55.04895,55.049,55.04907ZM220,103.33337l-53.33337,53.33326V383.33337L220,436.66663Z"/>
</svg>
