<svg xmlns="http://www.w3.org/2000/svg" viewBox="0 0 240 540">
  <path d="M120,540A120.13623,120.13623,0,0,1,0,420H20a100,100,0,0,0,200,0h20A120.13623,120.13623,0,0,1,120,540Zm80-120a80,80,0,1,0-80,80A80.09041,80.09041,0,0,0,200,420Zm-20,0a60,60,0,1,1-60-60A60.06812,60.06812,0,0,1,180,420Zm-20,0a40,40,0,1,0-40,40A40.04552,40.04552,0,0,0,160,420Zm-20,0a20,20,0,1,1-20-20A20.0226,20.0226,0,0,1,140,420ZM240,97.5a37.49149,37.49149,0,0,0-55-33.16064V37.5a37.50094,37.50094,0,0,0-74.874-3.09326A37.49067,37.49067,0,0,0,55,67.5v93.26807A65.10193,65.10193,0,0,0,0,225V350H20V225a45.08131,45.08131,0,0,1,35-43.88037V300H75V67.5a17.5,17.5,0,0,1,35,0V300h20V37.5a17.5,17.5,0,0,1,35,0V300h20V97.5a17.5,17.5,0,0,1,35,0V360h20Z"/>
</svg>
