<svg xmlns="http://www.w3.org/2000/svg" viewBox="0 0 240 540">
  <path d="M130,80.0127a30,30,0,1,0,30,30A30.03406,30.03406,0,0,0,130,80.0127Zm0,40a10,10,0,1,1,10-10A10.01146,10.01146,0,0,1,130,120.0127ZM240,192.051V360.0127H220v-115.212a160.12733,160.12733,0,0,1-40,23.52478V540H160V274.93787a159.18205,159.18205,0,0,1-30,4.75427V540H110V279.69214a159.18205,159.18205,0,0,1-30-4.75427V540H60V268.32544a160.12733,160.12733,0,0,1-40-23.52478v115.212H0V192.051a139.9229,139.9229,0,0,0,240,0ZM20.52887,110.00037H.45013a119.99712,119.99712,0,0,1,239.16,0h-20.0788a100.00278,100.00278,0,0,0-199.00244,0ZM169.04559,56.82471l-14.29083,14.291a59.98821,59.98821,0,0,0-83.65185,83.65186L56.81805,169.05237A79.98182,79.98182,0,0,1,169.04559,56.82471ZM120,199.9751a79.81753,79.81753,0,0,1-49.03992-16.78052l14.28516-14.28516a59.98791,59.98791,0,0,0,83.65161-83.65161l14.28522-14.28515A79.94387,79.94387,0,0,1,120,199.9751Zm-84.82275,4.87805a119.09528,119.09528,0,0,1-34.731-74.85291H20.52148a100.00735,100.00735,0,0,0,170.21924,60.7107,99.24439,99.24439,0,0,0,28.7981-60.7107l20.07525.00013A120.00113,120.00113,0,0,1,35.17725,204.85315Z"/>
</svg>
