<svg xmlns="http://www.w3.org/2000/svg" viewBox="0 0 240 540">
  <path d="M239.97266,400l-56.17554-98.40979a119.956,119.956,0,0,0-18.22461-212.5921A100.10643,100.10643,0,0,0,220,0H200a80.09041,80.09041,0,0,1-80,80A80.09041,80.09041,0,0,1,40,0H20A100.10643,100.10643,0,0,0,74.42749,88.99811a119.956,119.956,0,0,0-18.22461,212.5921L.02734,400H110v60H40v20h70v60h20V480h70V460H130V400ZM20,200a100,100,0,1,1,153.87744,84.21246L120,189.82861,66.12256,284.21246A100.01026,100.01026,0,0,1,20,200Zm136.02625,93.2829a99.96981,99.96981,0,0,1-72.05262,0L120,230.17139ZM73.9668,310.81329a119.926,119.926,0,0,0,92.0664,0L205.52734,380H34.47266Z"/>
</svg>
