<svg xmlns="http://www.w3.org/2000/svg" viewBox="0 0 240 540">
  <path d="M205,380a35,35,0,0,0,0-70H35a35,35,0,0,0,0,70h75v40H35a35,35,0,0,0,0,70H50.00732l-50,50H28.29248l50-50H110v50h20V490h31.70752l50,50h28.28516l-50-50H205a35,35,0,0,0,0-70H130V380ZM35,470a15,15,0,0,1,0-30h75v30Zm170-30a15,15,0,0,1,0,30H130V440Zm15-95a15.01672,15.01672,0,0,1-15,15H130V330h75A15.01672,15.01672,0,0,1,220,345ZM35,360a15,15,0,0,1,0-30h75v30ZM190,0H60A60.06812,60.06812,0,0,0,0,60v60a60.09922,60.09922,0,0,0,50,59.167V202.9267A70.1141,70.1141,0,0,0,0,270v10H190a50.05635,50.05635,0,0,0,50-50V50A50.05635,50.05635,0,0,0,190,0ZM70,220h40V190a30.03406,30.03406,0,0,1,30-30V140a50.05635,50.05635,0,0,0-50,50v10H70V160H60a40.04552,40.04552,0,0,1-40-40V60A40.04521,40.04521,0,0,1,60,20H190a30.04761,30.04761,0,0,1,28.27985,20H140V60h80V80H140v20h80v90.02722A49.97282,49.97282,0,0,0,150.02722,260H21.00439A50.08857,50.08857,0,0,1,70,220Zm120,40a30,30,0,1,1,30-30A30.03406,30.03406,0,0,1,190,260ZM70,60a30,30,0,1,0,30,30A30.03406,30.03406,0,0,0,70,60Zm0,40A10,10,0,1,1,80,90,10.01114,10.01114,0,0,1,70,100Z"/>
</svg>
