<svg xmlns="http://www.w3.org/2000/svg" viewBox="0 0 240 540">
  <path d="M220,160a100.36251,100.36251,0,0,1-63.716,93.19171,40.09444,40.09444,0,0,0-5.85285-9.10907,120.52374,120.52374,0,0,0-5.09894-113.15222,40.06332,40.06332,0,1,0-18.26294,8.43127,100.47615,100.47615,0,0,1,6.70679,93.08417,39.71573,39.71573,0,0,0-10.58954-2.30743A120.41141,120.41141,0,0,0,10,150H0v20H10a100.362,100.362,0,0,1,93.19147,63.71613,40.09618,40.09618,0,0,0-9.10889,5.85278A120.41543,120.41543,0,0,0,0,235.52679v21.65833a100.45271,100.45271,0,0,1,82.44592-.96143,39.7182,39.7182,0,0,0-2.30749,10.58979A120.41141,120.41141,0,0,0,0,380v10H20V380a100.362,100.362,0,0,1,63.71613-93.19147,40.09523,40.09523,0,0,0,5.85272,9.10883,120.52374,120.52374,0,0,0,5.09894,113.15222,40.06332,40.06332,0,1,0,18.26294-8.43127,100.47615,100.47615,0,0,1-6.70679-93.08417,39.71816,39.71816,0,0,0,10.58923,2.30737A120.412,120.412,0,0,0,230,390h10V370H230a100.36259,100.36259,0,0,1-93.19171-63.716,40.09634,40.09634,0,0,0,9.08856-5.83509,119.4525,119.4525,0,0,0,51.67932,11.70734A121.13012,121.13012,0,0,0,240,304.47681V282.81409a100.45558,100.45558,0,0,1-82.44592.96209,39.71948,39.71948,0,0,0,2.30743-10.58935A120.412,120.412,0,0,0,240,160V150H220ZM100,100a20,20,0,1,1,20,20A20.0226,20.0226,0,0,1,100,100Zm40,340a20,20,0,1,1-20-20A20.02229,20.02229,0,0,1,140,440ZM120,290a20,20,0,1,1,20-20A20.02229,20.02229,0,0,1,120,290ZM20,120H0a120,120,0,0,1,240,0H220a100,100,0,0,0-200,0ZM220,420h20A120,120,0,0,1,0,420H20a100,100,0,0,0,200,0Z"/>
</svg>
