<svg xmlns="http://www.w3.org/2000/svg" viewBox="0 0 240 540">
  <path d="M240,120A120,120,0,0,0,0,120v10H40.26318L0,300v20a45,45,0,0,0,90,0V300L49.73682,130H81.26587A40.14954,40.14954,0,0,0,110,158.73419V400.64728A80.10184,80.10184,0,0,0,40,480H0v20H60V480a60,60,0,0,1,120,0v20h60V480H200a80.10184,80.10184,0,0,0-70-79.35272V158.73419A40.14954,40.14954,0,0,0,158.73413,130h31.52905L150,300v20a45,45,0,0,0,90,0V300L199.73682,130H240ZM45,345a25.02817,25.02817,0,0,1-25-25H70A25.02817,25.02817,0,0,1,45,345ZM20.55334,300,45,196.78058,69.44666,300ZM195,345a25.02817,25.02817,0,0,1-25-25h50A25.02817,25.02817,0,0,1,195,345Zm-24.44666-45L195,196.78058,219.44666,300ZM120,140a20,20,0,1,1,20-20A20.02292,20.02292,0,0,1,120,140Zm38.73413-30a39.75511,39.75511,0,0,0-4.28931-10.30219l22.124-22.12408L162.42627,63.43115l-22.124,22.124A39.75637,39.75637,0,0,0,130,81.26587V50H110V81.26587a39.75637,39.75637,0,0,0-10.30225,4.28931l-22.124-22.124L63.43115,77.57373l22.124,22.12408A39.75511,39.75511,0,0,0,81.26587,110H20.49609a100.00571,100.00571,0,0,1,199.00782,0ZM0,520H240v20H0Z"/>
</svg>
