<svg xmlns="http://www.w3.org/2000/svg" viewBox="0 0 240 540">
  <path d="M240,270V0H220V270a100.13923,100.13923,0,0,1-90,99.5014V348.99384a50.005,50.005,0,0,0,0-97.98768V229.1507A60.08655,60.08655,0,0,0,180,170V0H160V170a40.07237,40.07237,0,0,1-30,38.73413V40H110V208.73413A40.07237,40.07237,0,0,1,80,170V0H60V170a60.08655,60.08655,0,0,0,50,59.1507v21.85546a50.005,50.005,0,0,0,0,97.98768V369.5014A100.13923,100.13923,0,0,1,20,270V0H0V270A120.15866,120.15866,0,0,0,110,389.5799V430H0v20H110v30H0v20H110v40h20V500H240V480H130V450H240V430H130V389.5799A120.15866,120.15866,0,0,0,240,270ZM90,300a30,30,0,1,1,30,30A30.03406,30.03406,0,0,1,90,300Z"/>
</svg>
