<svg xmlns="http://www.w3.org/2000/svg" viewBox="0 0 240 540">
  <path d="M120,0A120.1356,120.1356,0,0,0,0,120V300H50v40H190V300h50V120A120.1356,120.1356,0,0,0,120,0ZM220,280H190V220H170V320H150V260H130v60H110V260H90v60H70V220H50v60H20V120a100,100,0,0,1,200,0ZM75,90a35,35,0,1,0,35,35A35.03994,35.03994,0,0,0,75,90Zm0,50a15,15,0,1,1,15-15A15.01672,15.01672,0,0,1,75,140Zm90-50a35,35,0,1,0,35,35A35.03994,35.03994,0,0,0,165,90Zm0,50a15,15,0,1,1,15-15A15.01672,15.01672,0,0,1,165,140Zm15,280a60,60,0,1,0-70,59.1507V540h20V479.1507A60.08655,60.08655,0,0,0,180,420ZM80,420a40,40,0,1,1,40,40A40.04552,40.04552,0,0,1,80,420Zm10,80v20A90.10217,90.10217,0,0,1,0,430V330H20V430A70.079,70.079,0,0,0,90,500ZM220,330h20V430a90.10217,90.10217,0,0,1-90,90V500a70.079,70.079,0,0,0,70-70Z"/>
</svg>
